<svg preserveAspectRatio="none" width="100%" height="100%" overflow="visible" style="display: block;" viewBox="0 0 186.867 186.867" fill="none" xmlns="http://www.w3.org/2000/svg" xmlns:xlink="http://www.w3.org/1999/xlink">
<g id="Group 2147229963">
<rect id="Rectangle 34652896" x="9.73799" y="9.74477" width="166.51" height="166.51" rx="83.2549" fill="var(--fill-0, #19191A)"/>
<path id="Line 2439" d="M93.4546 105.697L93.4546 32.6969" stroke="var(--stroke-0, white)" stroke-width="1.50406"/>
<path id="Line 2441" d="M80.4545 92.6969L153.455 92.6969" stroke="var(--stroke-0, #818181)" stroke-width="1.50406"/>
<g id="Repeat group 1">
<g id="Repeat group 1_inner" data-figma-trr="r12u30.5-0f">
<line id="Line 2441_2" x1="111.59" y1="24.3338" x2="112.844" y2="19.6552" stroke="var(--stroke-0, white)" stroke-width="0.692816"/>
</g>
<use xlink:href="#Repeat%20group%201_inner" transform="translate(59.2345 -34.1991) rotate(30)"/>
<use xlink:href="#Repeat%20group%201_inner" transform="translate(127.633 -34.199) rotate(60)"/>
<use xlink:href="#Repeat%20group%201_inner" transform="translate(186.867 1.17729e-05) rotate(90)"/>
<use xlink:href="#Repeat%20group%201_inner" transform="translate(221.066 59.2345) rotate(120)"/>
<use xlink:href="#Repeat%20group%201_inner" transform="translate(221.066 127.633) rotate(150)"/>
<use xlink:href="#Repeat%20group%201_inner" transform="translate(186.867 186.867) rotate(-180)"/>
<use xlink:href="#Repeat%20group%201_inner" transform="translate(127.633 221.066) rotate(-150)"/>
<use xlink:href="#Repeat%20group%201_inner" transform="translate(59.2345 221.066) rotate(-120)"/>
<use xlink:href="#Repeat%20group%201_inner" transform="translate(-8.80294e-06 186.867) rotate(-90)"/>
<use xlink:href="#Repeat%20group%201_inner" transform="translate(-34.1991 127.633) rotate(-60)"/>
<use xlink:href="#Repeat%20group%201_inner" transform="translate(-34.199 59.2345) rotate(-30)"/>
</g>
<g id="Repeat group 2">
<g id="Repeat group 2_inner" data-figma-trr="r12u5.8-0f">
<line id="Line 2441_3" x1="92.7021" y1="34.4203" x2="92.7021" y2="9.9595" stroke="var(--stroke-0, white)" stroke-width="0.73"/>
</g>
<use xlink:href="#Repeat%20group%202_inner" transform="translate(59.0317 -34.057) rotate(30)"/>
<use xlink:href="#Repeat%20group%202_inner" transform="translate(127.183 -34.0354) rotate(60)"/>
<use xlink:href="#Repeat%20group%202_inner" transform="translate(186.193 0.0590983) rotate(90)"/>
<use xlink:href="#Repeat%20group%202_inner" transform="translate(220.25 59.0908) rotate(120)"/>
<use xlink:href="#Repeat%20group%202_inner" transform="translate(220.229 127.242) rotate(150)"/>
<use xlink:href="#Repeat%20group%202_inner" transform="translate(186.134 186.252) rotate(-180)"/>
<use xlink:href="#Repeat%20group%202_inner" transform="translate(127.102 220.309) rotate(-150)"/>
<use xlink:href="#Repeat%20group%202_inner" transform="translate(58.951 220.288) rotate(-120)"/>
<use xlink:href="#Repeat%20group%202_inner" transform="translate(-0.0590953 186.193) rotate(-90)"/>
<use xlink:href="#Repeat%20group%202_inner" transform="translate(-34.1161 127.162) rotate(-60)"/>
<use xlink:href="#Repeat%20group%202_inner" transform="translate(-34.0945 59.0101) rotate(-30)"/>
</g>
<path id="Line 2440" d="M144.944 121.757C143.873 123.696 144.576 126.136 146.515 127.207C148.453 128.279 150.894 127.576 151.965 125.637C153.036 123.698 152.333 121.258 150.395 120.186C148.456 119.115 146.015 119.818 144.944 121.757ZM93.0949 93.1041L92.7312 93.7624L148.091 124.355L148.455 123.697L148.818 123.039L93.4587 92.4459L93.0949 93.1041Z" fill="var(--stroke-0, #BC0003)"/>
<rect id="Rectangle 34652951" x="89.4545" y="88.6969" width="8" height="8" rx="4" fill="var(--fill-0, white)"/>
</g>
</svg>
